<svg xmlns="http://www.w3.org/2000/svg" width="15" height="16" viewBox="0 0 15 16">
    <path fill="#888" fill-rule="evenodd" d="M14.742 11.003c-.034.764-.156 1.286-.332 1.745a3.524 3.524 0 0 1-.822 1.271c-.396.4-.794.647-1.263.83-.456.176-.974.298-1.733.334-.761.034-1.005.042-2.942.042-1.939 0-2.18-.008-2.942-.042-.76-.036-1.278-.158-1.732-.335a3.482 3.482 0 0 1-1.264-.829c-.396-.4-.64-.8-.823-1.271-.176-.459-.296-.98-.33-1.745C.523 10.236.514 9.99.514 8.04s.01-2.196.045-2.962c.034-.765.154-1.287.33-1.745.183-.472.427-.874.823-1.271a3.5 3.5 0 0 1 1.264-.83c.454-.177.972-.3 1.732-.334C5.47.864 5.71.855 7.65.855c1.937 0 2.18.009 2.942.043.76.035 1.277.157 1.733.334.469.184.867.43 1.263.83.397.397.64.799.822 1.271.176.458.298.98.332 1.745.034.766.043 1.011.043 2.962 0 1.951-.009 2.196-.043 2.963zm-1.642-7.2a2.202 2.202 0 0 0-.541-.826 2.218 2.218 0 0 0-.83-.538c-.255-.1-.639-.216-1.344-.248-.762-.034-.99-.042-2.92-.042s-2.159.008-2.923.042c-.704.032-1.087.149-1.342.248-.337.13-.578.286-.83.538-.254.25-.41.49-.541.825-.099.253-.217.634-.25 1.335-.035.758-.041.984-.041 2.903s.006 2.146.042 2.903c.032.701.15 1.082.249 1.335.13.334.287.574.54.826.253.252.494.407.831.537.255.099.638.216 1.342.248.764.035.991.042 2.922.042 1.93 0 2.159-.007 2.921-.042.705-.032 1.089-.15 1.344-.248.337-.13.578-.285.83-.537.253-.252.41-.492.54-.826.1-.253.218-.634.25-1.335.034-.757.042-.984.042-2.903s-.008-2.145-.042-2.903c-.032-.701-.15-1.082-.25-1.335zM7.464 11.73c-2.05 0-3.712-1.653-3.712-3.69 0-2.039 1.662-3.69 3.712-3.69 2.05 0 3.713 1.651 3.713 3.69 0 2.037-1.663 3.69-3.713 3.69zm0-6.085a2.403 2.403 0 0 0-2.41 2.395 2.404 2.404 0 0 0 2.41 2.396c1.33 0 2.41-1.074 2.41-2.396a2.403 2.403 0 0 0-2.41-2.395zm3.859-.578a.865.865 0 0 1-.867-.862c0-.476.388-.863.867-.863s.868.387.868.863-.39.862-.868.862z"/>
</svg>
