<svg xmlns="http://www.w3.org/2000/svg" width="17" height="14" viewBox="0 0 17 14">
    <path fill="#888" fill-rule="evenodd" d="M15.26 3.487c.007.152.01.304.01.457C15.27 8.614 11.76 14 5.347 14A9.785 9.785 0 0 1 0 12.413c.273.032.55.048.832.048a6.938 6.938 0 0 0 4.332-1.513c-1.527-.028-2.814-1.05-3.258-2.454a3.485 3.485 0 0 0 1.575-.06C1.885 8.109.683 6.68.683 4.969v-.046a3.42 3.42 0 0 0 1.58.442A3.542 3.542 0 0 1 .711 2.424c0-.647.172-1.255.473-1.777 1.72 2.139 4.29 3.546 7.188 3.693a3.573 3.573 0 0 1-.09-.805C8.282 1.583 9.844 0 11.77 0c1.003 0 1.91.43 2.546 1.117a6.944 6.944 0 0 0 2.215-.858 3.537 3.537 0 0 1-1.534 1.955A6.884 6.884 0 0 0 17 1.658a7.135 7.135 0 0 1-1.74 1.83"/>
</svg>
