<svg xmlns="http://www.w3.org/2000/svg" width="16" height="11" viewBox="0 0 16 11">
    <path fill="#888" fill-rule="evenodd" d="M16 5.924c0 1.309-.133 2.617-.133 2.617s-.128 1.115-.616 1.605c-.618.645-1.307.648-1.625.686-2.274.163-5.682.168-5.682.168s-4.213-.038-5.513-.162c-.362-.068-1.15-.047-1.767-.692-.487-.49-.598-1.605-.598-1.605S0 7.233 0 5.924V4.697C0 3.39.066 2.084.066 2.084s.062-1.11.55-1.6c.617-.645 1.31-.393 1.628-.43 2.273-.164 5.684.1 5.684.1h.007s3.404-.264 5.678-.1c.318.037 1.003-.101 1.62.543.489.49.633 1.544.633 1.544S16 3.39 16 4.697v1.227zM6.398 7.41l4.447-2.265-4.448-2.279v4.544z"/>
</svg>
