<svg xmlns="http://www.w3.org/2000/svg" width="108" height="38" viewBox="0 0 108 38">
    <g fill="none" fill-rule="evenodd">
        <path fill="#DE9C19" d="M17.41 4.433a4.377 4.377 0 0 1-4.384 4.372 4.378 4.378 0 0 1-4.384-4.372 4.377 4.377 0 0 1 4.384-4.37 4.377 4.377 0 0 1 4.383 4.37"/>
        <path fill="#DE9C19" d="M10.461 30.704V18.506L.846 9.082h.001a2.544 2.544 0 0 1-.031-3.605 2.562 2.562 0 0 1 3.616-.03l8.589 8.416 8.598-8.426a2.562 2.562 0 0 1 3.616.031 2.544 2.544 0 0 1-.03 3.605l-9.629 9.434v12.197a2.554 2.554 0 0 1-2.557 2.55 2.555 2.555 0 0 1-2.558-2.55"/>
        <path class="text" fill="#FFF" d="M38.626 11.613l-3.694 21.599c-.616 3.699-1.355 4.557-6.485 4.557H25.82v-3.51h1.642c1.108 0 1.477-.187 1.477-.972 0-.186 0-.374-.04-.635l-3.573-21.04h5.214l1.437 16.334h.082l1.725-16.333h4.842zM46.014 19.832v-3.848c0-.523-.245-1.12-.944-1.12-.698 0-.902.597-.902 1.12v3.848h1.846zm-7.06-3.66c0-3.213 2.793-4.82 6.116-4.82 3.283 0 6.157 1.607 6.157 4.82v6.878h-7.06v5.568c0 .523.205 1.12.903 1.12.699 0 .944-.597.944-1.12v-4.11h5.213v3.924c0 3.211-2.874 4.817-6.157 4.817-3.323 0-6.116-1.606-6.116-4.817v-12.26zM57.727 28.618c0 .522.205 1.121.903 1.121.698 0 .944-.599.944-1.121v-6.166l-.944.598c-.739.596-.903.747-.903 1.683v3.885zm-5.211-12.446c0-3.214 2.79-4.82 6.114-4.82 3.284 0 6.158 1.606 6.158 4.82v12.483c0 1.494-.022 4.333-.022 4.333h-4.904l-.288-2.167h-.082c-.697 1.719-1.97 2.428-3.489 2.428-2.625 0-3.487-1.417-3.487-3.847v-4.595c0-5.385 7.058-3.326 7.058-7.963v-.86c0-.522-.246-1.12-.944-1.12s-.903.598-.903 1.12v3.063h-5.211v-2.875zM71.472 13.443h.082c.78-1.306 1.93-2.091 3.736-2.091 2.585 0 3.242 1.42 3.242 3.737v8.035h-5.214v-6.766c0-.523-.245-1.12-.943-1.12s-.903.597-.903 1.12v16.63H66.26V11.613h5.212v1.83zM88.122 30.598h-.081c0 1.456-1.765 2.65-3.326 2.65-2.708 0-3.653-1.567-3.653-3.808V11.613h5.214v16.63c0 .523.204 1.122.902 1.122.698 0 .944-.599.944-1.122v-16.63h5.213v21.375h-5.213v-2.39zM101.812 16.358c0-.523-.247-1.12-.944-1.12-.699 0-.904.597-.904 1.12v11.885c0 .523.205 1.122.904 1.122.697 0 .944-.599.944-1.122V16.358zm-1.848-2.503h.082c.329-1.495 1.642-2.503 3.202-2.503 3.243 0 3.776 2.39 3.776 4.781V28.58c0 2.392-.533 4.669-3.776 4.669-1.56 0-2.873-.895-3.202-2.128h-.082v6.648h-5.213V11.613h5.213v2.242zM105.636 36.242c.19 0 .303-.093.303-.24v-.008c0-.154-.113-.238-.303-.238h-.384v.486h.384zm-.675-.75h.687c.202 0 .366.06.467.162.08.082.124.191.124.324v.008c0 .248-.145.401-.356.462l.416.58h-.351l-.373-.531h-.323v.53h-.291v-1.535zm1.909.81v-.008c0-.725-.565-1.312-1.312-1.312-.75 0-1.32.595-1.32 1.32v.009c0 .725.564 1.312 1.312 1.312.75 0 1.32-.596 1.32-1.32zm-2.787.009v-.008c0-.799.65-1.467 1.475-1.467.824 0 1.467.66 1.467 1.458v.009c0 .797-.65 1.466-1.475 1.466a1.458 1.458 0 0 1-1.467-1.458z"/>
    </g>
</svg>
