<svg xmlns="http://www.w3.org/2000/svg" width="88" height="31" viewBox="0 0 88 31">
    <g fill="none" fill-rule="evenodd">
        <path fill="#DE9C19" d="M14 3.5A3.5 3.5 0 1 1 7 3.5a3.5 3.5 0 0 1 7-.002"/>
        <path fill="#DE9C19" d="M8.42 24.946v-9.828L.62 7.526a2.04 2.04 0 0 1-.025-2.904 2.089 2.089 0 0 1 2.933-.025l6.968 6.78L17.47 4.59a2.088 2.088 0 0 1 2.934.026 2.04 2.04 0 0 1-.025 2.904l-7.811 7.6v9.827A2.065 2.065 0 0 1 10.495 27a2.065 2.065 0 0 1-2.075-2.054"/>
        <path fill="#0054A0" d="M32 9l-3.055 17.341c-.51 2.97-1.121 3.659-5.364 3.659h-2.173v-2.818h1.358c.917 0 1.222-.15 1.222-.78 0-.15 0-.3-.034-.51L21 9h4.312l1.189 13.113h.067L27.995 9H32zM37.752 15.971v-3.163c0-.43-.2-.921-.768-.921-.569 0-.736.49-.736.92v3.164h1.504zM32 12.961C32 10.321 34.276 9 36.984 9 39.659 9 42 10.32 42 12.961v5.655h-5.752v4.577c0 .43.167.92.736.92s.768-.49.768-.92v-3.378H42v3.225c0 2.64-2.341 3.96-5.016 3.96C34.276 27 32 25.68 32 23.04V12.96zM47.247 23.193c0 .43.167.922.735.922.569 0 .77-.492.77-.922v-5.069l-.77.492c-.602.49-.735.614-.735 1.383v3.194zM43 12.962C43 10.321 45.274 9 47.982 9 50.658 9 53 10.32 53 12.962v10.261c0 1.229-.018 3.562-.018 3.562l-3.996.001-.235-1.782h-.067C48.116 26.417 47.08 27 45.842 27 43.702 27 43 25.835 43 23.838V20.06c0-4.427 5.751-2.735 5.751-6.547v-.706c0-.43-.2-.921-.769-.921-.568 0-.735.492-.735.921v2.518H43v-2.364zM59.247 10.74h.067C59.949 9.653 60.886 9 62.358 9 64.465 9 65 10.181 65 12.109v6.684h-4.249v-5.628c0-.435-.2-.933-.768-.933-.569 0-.736.498-.736.933V27H55V9.217h4.247v1.523zM72.752 24.794h-.066c0 1.212-1.438 2.206-2.71 2.206C67.77 27 67 25.695 67 23.831V9h4.248v13.835c0 .436.167.934.736.934.568 0 .768-.498.768-.934V9H77v17.783h-4.248v-1.989zM83.753 13.169c0-.435-.201-.933-.77-.933-.568 0-.736.498-.736.933v9.898c0 .435.168.934.737.934.568 0 .769-.499.769-.934v-9.898zm-1.506-2.084h.067C82.582 9.839 83.652 9 84.924 9 87.564 9 88 10.99 88 12.982v10.365c0 1.992-.435 3.889-3.077 3.889-1.271 0-2.341-.746-2.609-1.772h-.067V31H78V9.217h4.247v1.868zM87.056 28.959c.13 0 .206-.064.206-.163v-.006c0-.105-.077-.163-.206-.163h-.26v.332h.26zm-.46-.512h.468c.137 0 .249.041.317.111.055.056.085.13.085.22v.006c0 .17-.099.274-.242.315l.282.395h-.238l-.254-.362h-.219v.362h-.198v-1.047zm1.299.553v-.006a.884.884 0 0 0-.892-.895.892.892 0 0 0-.898.901v.006c0 .494.384.894.892.894.51 0 .898-.406.898-.9zM86 29.006V29c0-.544.442-1 1.003-1 .56 0 .997.45.997.994V29c0 .544-.442 1-1.003 1a.993.993 0 0 1-.997-.994z"/>
    </g>
</svg>
